<?xml version="1.0" encoding="UTF-8" standalone="no"?>
<svg width="252px" height="64px" viewBox="0 0 252 64" version="1.1" xmlns="http://www.w3.org/2000/svg" xmlns:xlink="http://www.w3.org/1999/xlink">
    <!-- Generator: Sketch 43.2 (39069) - http://www.bohemiancoding.com/sketch -->
    <title>Group</title>
    <desc>Created with Sketch.</desc>
    <defs></defs>
    <g id="Brand" stroke="none" stroke-width="1" fill="none" fill-rule="evenodd">
        <g id="Group">
            <path d="M139.416431,47.592068 L128.628895,47.592068 C126.951841,47.592068 126,46.2776204 126,44.7818697 L126,19.1728045 C126.045326,17.631728 126.951841,16.3626062 128.628895,16.3626062 L138.509915,16.3626062 C144.130312,16.3626062 147.756374,19.7167139 147.756374,25.0651558 C147.756374,27.1048159 146.713881,29.6883853 143.495751,30.9121813 C147.620397,31.9546742 149.388102,35.490085 149.388102,38.0283286 C149.388102,43.1954674 145.626062,47.592068 139.416431,47.592068 Z M132.66289,28.8271955 L137.875354,28.8271955 C139.597734,28.8271955 140.776204,27.3767705 140.776204,25.5184136 C140.776204,23.5694051 139.779037,22.2096317 137.830028,22.2096317 L132.66289,22.2096317 L132.66289,28.8271955 Z M138.917847,34.0849858 L132.66289,34.0849858 L132.66289,41.7450425 L139.053824,41.7450425 C141.274788,41.7450425 142.407932,39.7053824 142.407932,37.8470255 C142.407932,36.0793201 141.274788,34.0849858 138.917847,34.0849858 Z M172.288952,40.203966 L161.592068,40.203966 L159.461756,45.9150142 C158.872521,47.4560907 156.968839,48.1813031 155.291785,47.6373938 C153.660057,47.0934844 152.753541,45.0538244 153.29745,43.5127479 L162.31728,19.2181303 C163.042493,17.3144476 164.492918,16.1359773 166.804533,16.1359773 L167.076487,16.1359773 C169.388102,16.1359773 170.838527,17.3144476 171.563739,19.2181303 L180.583569,43.5127479 C181.127479,45.0538244 180.220963,47.0934844 178.589235,47.6373938 C176.912181,48.1813031 175.008499,47.4560907 174.419263,45.9150142 L172.288952,40.203966 Z M163.767705,34.4475921 L170.113314,34.4475921 L166.94051,23.5694051 L163.767705,34.4475921 Z M184.90085,41.2917847 C186.260623,45.325779 190.249292,48 195.779037,48 C201.308782,48 206.929178,45.0538244 207.01983,38.8441926 C207.110482,35.8526912 206.022663,31.592068 198.453258,29.4164306 L194.736544,28.3286119 C191.699717,27.4674221 191.382436,25.9716714 191.382436,25.1558074 C191.382436,23.2974504 193.104816,21.9376771 195.416431,21.9376771 C196.82153,21.9376771 198.543909,22.4362606 199.858357,24.1133144 C200.946176,25.4730878 202.396601,25.9263456 204.028329,24.8838527 C205.161473,24.1586402 205.796034,22.7082153 205.025496,21.2124646 C203.348442,17.9490085 199.994334,16 195.507082,16 C189.524079,16 184.764873,19.7620397 184.764873,25.3371105 C184.764873,28.1473088 185.943343,32.0906516 192.832861,34.2209632 L196.594901,35.2634561 C199.767705,36.1699717 200.402266,37.3937677 200.356941,38.7988669 C200.311615,40.8385269 198.453258,42.1076487 195.779037,42.1076487 C192.968839,42.1076487 191.427762,40.5665722 190.747875,39.1614731 C190.113314,37.8470255 188.436261,36.8951841 186.668555,37.5750708 C185.127479,38.1643059 184.402266,39.7053824 184.90085,41.2917847 Z M220.130312,19.2181303 C220.130312,17.5410765 218.634561,16.1359773 216.82153,16.1359773 C215.09915,16.1359773 213.558074,17.5864023 213.512748,19.2181303 L213.512748,44.7365439 C213.512748,46.368272 215.09915,47.8186969 216.82153,47.8186969 C218.634561,47.8186969 220.130312,46.4135977 220.130312,44.7365439 L220.130312,19.2181303 Z M251.915014,19.2181303 C251.915014,17.5410765 250.419263,16.1359773 248.606232,16.1359773 C246.883853,16.1359773 245.29745,17.5864023 245.29745,19.2181303 L245.29745,35.0368272 L235.824363,18.4475921 C234.78187,16.5892351 233.558074,16.1359773 232.152975,16.1359773 L231.563739,16.1359773 C229.932011,16.1359773 228.526912,17.631728 228.526912,19.5354108 L228.526912,44.7365439 C228.526912,46.368272 230.113314,47.8186969 231.835694,47.8186969 C233.648725,47.8186969 235.144476,46.4135977 235.144476,44.7365439 L235.144476,28.6912181 L244.844193,45.5524079 C245.886686,47.3654391 247.01983,47.8186969 248.379603,47.8186969 L248.968839,47.8186969 C250.555241,47.8186969 251.915014,46.368272 251.915014,44.509915 L251.915014,19.2181303 Z" id="BASIN" fill="#FFFFFF"></path>
            <path d="M79.3803482,2.73402398 C70.9154098,0.970583834 59.7334752,0 47.8906497,0 C36.0478241,0 24.8658896,0.970583834 16.4020154,2.73402398 C5.21156692,5.06363803 0,8.55327003 0,13.7137536 C0,14.0936861 0.0308628631,14.4640404 0.0819462228,14.7535128 C0.860967458,22.9768695 6.82282122,64 47.8906497,64 C88.9467715,64 94.9203319,22.9768695 95.6908393,14.8237524 C95.7504365,14.4608477 95.7812994,14.0904934 95.7812994,13.7137536 C95.7812994,8.55327003 90.5697324,5.06363803 79.3803482,2.73402398 L79.3803482,2.73402398 Z M47.8906497,21.5848479 C21.8392005,21.5848479 5.84265926,17.0001164 5.84265926,13.7137536 C5.84265926,10.4263266 21.8381363,5.84265926 47.8906497,5.84265926 C73.9431631,5.84265926 89.9365116,10.4273908 89.9365116,13.7137536 C89.9365116,17.0001164 73.9420989,21.5848479 47.8906497,21.5848479 L47.8906497,21.5848479 Z" id="Shape" fill="#FAD46B"></path>
        </g>
    </g>
</svg>